<?xml version="1.0" encoding="utf-8"?>
<!-- Generator: Adobe Illustrator 26.0.2, SVG Export Plug-In . SVG Version: 6.00 Build 0)  -->
<svg version="1.1" id="Layer_1" focusable="false" xmlns="http://www.w3.org/2000/svg" xmlns:xlink="http://www.w3.org/1999/xlink"
	 x="0px" y="0px" viewBox="0 0 448 512" style="enable-background:new 0 0 448 512;" xml:space="preserve">
<style type="text/css">
	.st0{fill:#FFFFFF;}
	.st1{fill:#020557;}
</style>
<rect class="st0" width="448" height="512"/>
<path class="st1" d="M330.9,120H117.1C101,120,88,133,88,149.1v213.7c0,16.1,13,29.1,29.1,29.1h213.7c16.1,0,29.1-13,29.1-29.1
	V149.1C360,133,347,120,330.9,120z M292,290c-19.2,6.8-25,9.7-36.3,9.7c-19.1,0-26.2-9.7-45.3-9.7c-5.3,0-10.5,0.8-15.5,2.4V273
	c5-1.6,10.3-2.4,15.5-2.4c18.9,0,26.2,9.7,45.3,9.7c6.2,0,10.8-0.8,16.9-2.8v-58.3c-6.1,1.9-10.7,2.8-16.9,2.8
	c-19.1,0-26.2-9.7-45.3-9.7c-15.4,0-22.7,6.3-35,8.7v93.3c0,5.4-4.3,9.7-9.7,9.7s-9.7-4.3-9.7-9.7V197.7c0-5.4,4.3-9.7,9.7-9.7
	s9.7,4.3,9.7,9.7v3.9c12.3-2.4,19.6-8.7,35-8.7c18.9,0,26.2,9.7,45.3,9.7c11.3,0,17.1-2.9,36.3-9.7V290z"/>
</svg>
